HIERARCHY
ROOT root
{
	OFFSET 0.000000 0.000000 0.000000
	CHANNELS 6 Xposition Yposition Zposition Zrotation Yrotation Xrotation
	JOINT lhip
	{
		OFFSET 0.058581 -0.082280 -0.017664
		CHANNELS 3 Zrotation Yrotation Xrotation
		JOINT lknee
		{
			OFFSET 0.043451 -0.386469 0.008037
			CHANNELS 3 Zrotation Yrotation Xrotation
			JOINT lankle
			{
				OFFSET -0.014790 -0.426874 -0.037428
				CHANNELS 3 Zrotation Yrotation Xrotation
				JOINT ltoe
				{
					OFFSET 0.041054 -0.060286 0.122042
					CHANNELS 3 Zrotation Yrotation Xrotation
					End Site
					{
						OFFSET 0.000000 0.000000 0.000000
					}
				}
			}
		}
	}
	JOINT rhip
	{
		OFFSET -0.060310 -0.090513 -0.013543
		CHANNELS 3 Zrotation Yrotation Xrotation
		JOINT rknee
		{
			OFFSET -0.043257 -0.383688 -0.004843
			CHANNELS 3 Zrotation Yrotation Xrotation
			JOINT rankle
			{
				OFFSET 0.019056 -0.420046 -0.034562
				CHANNELS 3 Zrotation Yrotation Xrotation
				JOINT rtoe
				{
					OFFSET -0.034840 -0.062106 0.130323
					CHANNELS 3 Zrotation Yrotation Xrotation
					End Site
					{
						OFFSET 0.000000 0.000000 0.000000
					}
				}
			}
		}
	}
	JOINT lowerback
	{
		OFFSET 0.004439 0.124404 -0.038385
		CHANNELS 3 Zrotation Yrotation Xrotation
		JOINT upperback
		{
			OFFSET 0.004488 0.137956 0.026820
			CHANNELS 3 Zrotation Yrotation Xrotation
			JOINT chest
			{
				OFFSET -0.002265 0.056032 0.002855
				CHANNELS 3 Zrotation Yrotation Xrotation
				JOINT lowerneck
				{
					OFFSET -0.013390 0.211636 -0.033468
					CHANNELS 3 Zrotation Yrotation Xrotation
					JOINT upperneck
					{
						OFFSET 0.010113 0.088937 0.050410
						CHANNELS 3 Zrotation Yrotation Xrotation
						End Site
						{
							OFFSET 0.000000 0.000000 0.000000
						}
					}
				}
				JOINT lclavicle
				{
					OFFSET 0.071702 0.114000 -0.018898
					CHANNELS 3 Zrotation Yrotation Xrotation
					JOINT lshoulder
					{
						OFFSET 0.122921 0.045205 -0.019046
						CHANNELS 3 Zrotation Yrotation Xrotation
						JOINT lelbow
						{
							OFFSET 0.255332 -0.015649 -0.022946
							CHANNELS 3 Zrotation Yrotation Xrotation
							JOINT lwrist
							{
								OFFSET 0.265709 0.012698 -0.007375
								CHANNELS 3 Zrotation Yrotation Xrotation
								End Site
								{
									OFFSET 0.000000 0.000000 0.000000
								}
							}
						}
					}
				}
				JOINT rclavicle
				{
					OFFSET -0.082954 0.112472 -0.023707
					CHANNELS 3 Zrotation Yrotation Xrotation
					JOINT rshoulder
					{
						OFFSET -0.113228 0.046853 -0.008472
						CHANNELS 3 Zrotation Yrotation Xrotation
						JOINT relbow
						{
							OFFSET -0.260127 -0.014369 -0.031269
							CHANNELS 3 Zrotation Yrotation Xrotation
							JOINT rwrist
							{
								OFFSET -0.269108 0.006794 -0.006027
								CHANNELS 3 Zrotation Yrotation Xrotation
								End Site
								{
									OFFSET 0.000000 0.000000 0.000000
								}
							}
						}
					}
				}
			}
		}
	}
}
MOTION
Frames: 17
Frame Time: 0.033333
0.923601 -0.436338 0.962630 -74.992518 1.105390 80.522721 7.463552 -11.785039 -6.402552 -15.654701 -29.918909 30.206779 3.566452 1.131375 -34.933384 0.000000 -0.000000 0.000000 -6.850559 7.881004 -7.197516 14.721317 18.277483 62.562861 16.925329 12.615666 -0.118891 0.000000 -0.000000 0.000000 -7.051097 -0.620948 12.607721 5.411792 -8.470206 1.892986 -1.330274 -5.009842 1.832237 5.027815 -7.630224 3.565671 7.563993 -19.995959 8.971244 -26.237648 -7.035949 3.715618 -54.215990 -15.415572 25.883025 -22.251474 -57.954043 43.425656 -5.867674 -14.054829 -12.749701 26.404753 -6.712589 2.270549 49.278716 -18.462087 15.267978 4.229612 58.930433 21.354912 -3.572484 8.754475 -17.110605 
0.935146 -0.419415 0.960111 -70.457236 0.383555 79.732858 6.948347 -14.104757 -7.511904 -15.865238 -31.823087 30.302246 2.839580 0.803017 -33.317373 0.000000 -0.000000 0.000000 -4.379342 9.212058 -3.387666 14.894682 19.844817 61.221645 15.232688 12.999663 -3.297544 0.000000 -0.000000 0.000000 -7.543042 0.799065 11.718192 4.630617 -7.361387 2.570278 -1.299065 -3.944480 1.457695 5.140340 -6.845205 4.289304 7.652313 -18.368262 9.725713 -26.040197 -6.749264 2.994099 -53.915192 -14.218792 26.041147 -19.209459 -60.309615 39.611607 -6.120519 -14.184615 -12.882790 25.532286 -5.134050 2.660426 47.192441 -18.712212 16.714414 11.632433 58.432687 30.345883 3.330753 10.039949 -17.209620 
0.948480 -0.400015 0.956946 -66.699689 -0.116894 78.885489 6.887060 -16.112776 -8.639713 -16.082425 -33.389741 30.137817 1.975224 0.484424 -31.409545 0.000000 -0.000000 0.000000 -1.696898 9.907859 -0.199309 13.977631 20.830895 59.234148 11.823466 11.103115 -7.056288 0.000000 -0.000000 0.000000 -7.702387 2.035660 11.423456 3.697101 -6.029009 2.812839 -1.158323 -2.859827 1.244068 5.078334 -6.224809 4.543334 7.518589 -16.013425 11.102393 -25.581320 -6.366818 2.330148 -53.563831 -12.521107 25.781070 -15.898885 -62.872448 35.848590 -5.625943 -14.287432 -12.944178 23.881511 -2.843451 2.813128 44.517386 -18.250761 18.395566 19.823079 58.091373 40.414493 9.370870 11.227678 -16.720663 
0.964212 -0.377908 0.954782 -63.806440 -0.382434 78.159551 7.274626 -17.334567 -9.116702 -15.119066 -35.114271 27.908138 0.614998 0.214767 -29.048091 0.000000 -0.000000 0.000000 0.353456 9.761598 1.959380 12.451654 20.517291 56.966210 8.599170 8.023851 -12.116086 0.000000 -0.000000 0.000000 -7.378112 3.139709 11.528124 2.582507 -4.256066 2.865055 -1.010840 -1.486363 0.968351 5.078008 -5.769949 4.737254 7.515583 -13.871829 12.142146 -24.985154 -5.930733 1.547402 -53.049348 -10.629017 25.461531 -13.218412 -65.030303 32.990593 -3.519704 -14.172118 -13.475840 21.812564 0.006324 3.121212 41.289783 -17.074398 19.933961 28.277418 57.294403 50.988731 11.285129 11.837530 -14.400821 
0.982847 -0.353265 0.955160 -61.647102 -0.404081 77.795706 7.769777 -17.694145 -9.171271 -12.326760 -36.538148 23.571016 -1.177286 0.070864 -25.597570 0.000000 -0.000000 0.000000 1.234806 8.328836 2.841434 10.366571 18.219926 53.776006 5.789721 4.739497 -17.394908 0.000000 -0.000000 0.000000 -6.255395 4.285148 11.737889 1.101757 -2.030486 2.976100 -0.955975 0.088559 0.425529 5.043684 -5.854485 5.399647 7.959459 -11.939655 12.325114 -24.714430 -5.798748 0.779478 -52.001841 -8.461005 25.071843 -11.088904 -66.707415 30.732546 -2.018677 -14.074197 -13.148887 19.639936 3.345026 3.866814 37.432249 -15.614329 20.740088 36.751167 56.008871 60.818840 10.791813 12.024968 -11.267288 
1.004690 -0.326116 0.957956 -59.879859 -0.217620 77.802527 8.109483 -16.392932 -10.068243 -9.104116 -34.320098 19.460269 -3.321564 0.716947 -20.443133 0.000000 -0.000000 0.000000 1.497189 6.074503 2.758516 8.009539 15.143036 49.950302 3.362796 1.947664 -21.721670 0.000000 -0.000000 0.000000 -4.413287 5.398711 12.359941 -0.659239 0.372063 2.788295 -1.006589 1.538241 -0.029711 4.819546 -6.666490 5.965821 8.673893 -9.908891 12.128325 -24.399863 -5.777111 -0.061862 -50.957629 -6.115048 24.477355 -10.844945 -67.811638 30.362620 -1.942246 -13.830594 -12.305362 16.879356 6.556700 4.418938 33.501642 -13.649126 20.533520 44.312992 54.050874 69.064926 12.487867 12.336731 -8.332295 
1.028572 -0.297194 0.962244 -58.656842 -0.017952 77.818816 7.500978 -12.484539 -11.737362 -6.883596 -25.070583 17.296673 -4.297046 4.707515 -13.740470 0.000000 -0.000000 0.000000 1.742291 4.089551 1.871192 6.091626 12.338157 46.598406 1.209541 -0.140642 -24.111041 0.000000 -0.000000 0.000000 -2.380474 5.819076 13.726860 -2.714744 2.626372 2.143767 -1.274745 2.877582 -0.242194 4.338964 -8.355532 6.319964 9.587390 -6.901871 12.048801 -23.951109 -5.550019 -0.761082 -49.813555 -3.291702 23.295767 -12.481326 -68.956223 31.751084 -2.348382 -13.740751 -11.795706 13.389281 9.943789 4.785559 30.328488 -10.532861 19.452294 48.908819 51.385274 73.396812 15.517943 12.654552 -5.714857 
1.052932 -0.267107 0.966838 -57.718167 0.451003 77.643945 6.501454 -8.043578 -13.456767 -5.778910 -14.245453 18.739927 -3.501595 7.180992 -10.502542 0.000000 -0.000000 0.000000 2.547309 2.268728 0.768754 4.617859 9.595276 43.772613 -0.794705 -2.255303 -24.765233 0.000000 -0.000000 0.000000 -0.356290 5.419834 15.680955 -4.739630 4.311620 1.172204 -1.587310 4.082812 -0.386622 3.600423 -10.566320 6.865096 10.515819 -2.937135 12.126090 -23.315865 -5.471193 -0.877811 -49.132895 0.082205 21.637525 -14.151575 -69.644699 33.088825 -2.386486 -14.015192 -11.270027 9.229067 13.595840 4.975718 28.045731 -7.002037 17.514518 50.323149 48.926280 73.879157 18.841290 12.551741 -3.313398 
1.076721 -0.236369 0.970408 -56.671186 0.751741 77.457736 5.713830 -6.318263 -15.869210 -7.226931 -10.322547 26.836324 -2.689272 5.773839 -12.187496 0.000000 -0.000000 0.000000 3.611382 0.711119 -0.473075 3.453778 7.290433 41.402938 -2.506565 -4.907680 -24.582791 0.000000 -0.000000 0.000000 0.942534 5.300993 17.638289 -6.301704 5.321401 0.171631 -1.753854 4.831156 -0.307702 3.133015 -12.458243 7.508675 11.386163 0.437610 11.661408 -22.621488 -5.732907 -0.427761 -49.179029 3.154026 20.291093 -14.173163 -69.737509 33.071347 -1.129440 -14.029642 -11.437741 5.042041 16.798269 4.451799 25.944036 -4.016057 15.128921 50.006185 47.135552 72.996501 22.001516 11.987816 -1.790000 
1.099242 -0.205903 0.972559 -56.227049 0.604222 77.331611 5.367457 -6.453147 -18.293137 -9.813759 -7.781096 38.068966 -2.509070 5.339698 -13.707557 0.000000 -0.000000 0.000000 4.607273 0.063032 -1.543780 2.371368 5.685121 38.842093 -4.026686 -7.440021 -24.098315 0.000000 -0.000000 0.000000 1.518748 5.604056 19.269862 -7.713165 6.077408 -0.707830 -1.969104 5.194112 0.023315 3.172442 -13.766313 7.909770 11.985673 3.447424 10.896010 -22.143057 -5.514010 0.037112 -49.444632 5.960167 18.991859 -12.079905 -70.272339 31.591778 0.923571 -13.804616 -11.219880 1.303394 19.394107 3.398348 23.760336 -0.777064 12.867714 48.952596 45.803403 72.247985 24.349436 11.424693 -0.762449 
1.121419 -0.176783 0.973607 -56.315211 0.411660 77.513029 5.344312 -6.535582 -19.972114 -11.184199 -4.748050 48.458764 -2.917414 5.601128 -12.876430 0.000000 -0.000000 0.000000 5.565568 0.396987 -2.455612 1.477953 5.224827 35.723652 -5.035540 -8.994141 -23.439522 0.000000 -0.000000 0.000000 1.947696 5.594759 20.413584 -9.034134 6.805919 -1.729037 -2.327325 5.561794 0.503218 3.349931 -14.647848 8.138734 12.116144 6.216841 10.310244 -21.785168 -4.453321 0.212393 -50.106492 8.446172 17.593260 -8.879679 -70.619683 28.745078 3.504175 -13.566065 -10.656881 -2.114054 21.185067 2.109724 21.489766 2.800554 10.681555 47.734974 45.116317 71.319652 25.698435 11.105173 0.142370 
1.144039 -0.149054 0.974080 -55.998274 0.453272 78.113234 5.146520 -6.531204 -20.894467 -12.455413 -3.800071 57.670157 -3.525378 5.342605 -10.256053 0.000000 -0.000000 0.000000 6.444071 1.251656 -4.211560 0.947060 5.647639 33.498740 -5.285784 -9.627034 -22.189601 0.000000 -0.000000 0.000000 2.517854 4.991005 20.981116 -10.091376 7.393420 -2.676350 -2.746868 5.759158 0.896203 3.280678 -15.409942 8.434029 11.965074 8.787455 9.827080 -21.459967 -3.234546 0.451771 -51.017687 10.694800 16.250443 -5.165749 -70.575057 24.772057 6.208017 -12.795114 -10.876176 -5.301043 22.255194 0.732511 19.176146 5.901248 8.379941 46.872939 45.508858 70.213957 26.205105 10.864734 0.861191 
1.166714 -0.122303 0.974236 -54.956236 0.814678 78.792881 4.891574 -6.516608 -20.424282 -12.981654 -3.775452 64.958564 -4.349861 5.343976 -6.398766 0.000000 -0.000000 0.000000 7.166665 2.264725 -6.743795 0.810727 5.332831 32.484574 -5.297422 -10.110868 -20.211739 0.000000 -0.000000 0.000000 3.179040 3.890056 21.243457 -10.752592 7.774117 -3.275867 -3.017178 5.504967 1.044188 3.082695 -16.103345 8.875752 11.557448 11.468507 9.273937 -21.276055 -2.244025 0.958099 -51.913387 12.836738 15.053871 -1.615356 -70.081058 20.765012 8.282813 -11.948470 -11.223104 -8.195718 22.882174 -0.741904 16.551520 8.482338 6.175485 46.838239 46.796095 69.606664 26.014898 10.663502 1.658590 
1.188872 -0.096773 0.973839 -53.060437 1.359555 79.468475 4.770595 -6.159218 -18.530969 -13.043723 -4.394583 69.857272 -5.607172 5.460170 -0.029834 0.000000 -0.000000 0.000000 7.611972 2.649295 -9.164366 0.753859 4.401816 31.354568 -5.631230 -10.536734 -18.148802 0.000000 -0.000000 0.000000 3.838749 2.503032 20.980464 -10.955308 7.707172 -3.239372 -3.160473 4.782372 0.907084 2.828983 -16.684270 9.553470 11.115779 14.050471 8.714335 -21.059328 -1.429739 1.829718 -52.691858 14.780034 13.792548 -0.335701 -69.137809 19.092805 8.192832 -11.460605 -12.131854 -10.734060 23.101874 -1.978091 13.946745 10.876143 3.810034 47.166350 48.905755 69.405641 26.095909 10.675525 2.394356 
1.210582 -0.072626 0.972922 -50.697876 1.811968 80.246713 4.715364 -4.974253 -15.411423 -14.880788 -6.588274 72.039380 -8.251870 3.975925 8.136724 0.000000 -0.000000 0.000000 7.900420 2.668177 -11.809274 0.543595 3.399623 30.485033 -6.396745 -11.267905 -15.756067 0.000000 -0.000000 0.000000 4.280398 1.000265 19.916372 -10.786655 7.395589 -2.569129 -3.250510 3.880312 0.625712 2.640368 -16.957767 10.358519 10.748028 16.172216 8.223910 -20.711380 -0.808518 2.741560 -53.168410 16.525486 12.952233 -1.259446 -67.913988 19.031255 8.413511 -10.445748 -14.354602 -12.763577 22.937474 -3.041162 11.879172 12.946163 1.531604 47.241004 52.092718 69.015419 26.251404 10.310791 3.194200 
1.231938 -0.050272 0.971366 -48.334828 1.929340 80.970986 4.569045 -3.216406 -10.616963 -19.192852 -10.412057 71.118215 -10.678498 0.687768 11.914380 0.000000 -0.000000 0.000000 7.697543 2.950503 -14.564973 0.348782 2.366807 29.976684 -6.885323 -12.295753 -13.333436 0.000000 -0.000000 0.000000 4.234928 -0.484748 18.641534 -10.440035 7.069192 -2.141142 -3.160759 2.989019 0.536926 2.770379 -16.565079 11.036307 10.003071 17.493498 7.927035 -20.258548 -0.144559 3.507386 -53.292120 17.952686 12.604735 -3.249762 -66.778582 19.707436 9.980739 -9.146155 -16.840834 -14.054545 22.355826 -4.182678 10.324671 15.099592 -0.207398 47.340304 55.756141 69.248443 26.161512 9.535375 4.798841 
1.253636 -0.029782 0.968482 -45.990542 1.692274 81.857579 4.508000 -1.707514 -4.862670 -21.422943 -13.791811 66.421715 -9.220149 -0.528301 9.698948 0.000000 -0.000000 0.000000 6.585160 2.991016 -17.475420 0.491642 1.086136 29.374315 -6.982926 -12.985340 -10.928293 0.000000 -0.000000 0.000000 3.841368 -1.777095 16.760544 -9.884678 6.680018 -1.903718 -3.066987 2.196652 0.941464 3.820882 -15.209873 11.217500 8.486236 17.599246 8.073122 -19.399877 0.488322 4.556119 -53.639640 18.405117 12.191445 -5.128379 -65.654552 21.166380 10.743804 -8.523459 -18.088206 -14.406316 21.180178 -4.867702 9.524785 17.624844 -1.808793 45.959677 59.986422 68.346035 25.443615 9.189805 6.300056 
